<svg version="1.1" xmlns="http://www.w3.org/2000/svg" xmlns:xlink="http://www.w3.org/1999/xlink" width="2160.27682" height="460.92461" viewBox="184.2287,361.12683,2160.27682,460.92461"><g fill="none" fill-rule="nonzero" stroke="none" stroke-width="none" stroke-linecap="butt" stroke-linejoin="miter" stroke-miterlimit="10" stroke-dasharray="" stroke-dashoffset="0" font-family="none" font-weight="none" font-size="none" text-anchor="none" style="mix-blend-mode: normal"><path d="M286.52842,564.30408l-79.53043,27.03535c-5.04231,-14.83306 -6.97603,-29.84267 -5.80118,-45.02884c1.17485,-15.18617 5.04322,-29.43961 11.60511,-42.76034c4.47043,-9.07503 10.00936,-17.41031 16.61678,-25.00582l0.67817,0.24035l10.0166,6.04115l7.10812,14.91651l12.11044,1.69637l10.45198,10.61391l3.56575,14.95114l8.58258,9.35996l4.85546,6.89613c-2.63616,6.78322 -2.72262,13.79794 -0.25937,21.04414z" fill="#d0d0ce" stroke="none" stroke-width="1"/><path d="M209.91373,736.78396c-10.94249,-10.59537 -19.50417,-23.27203 -25.68503,-38.02997l56.43461,-23.63574l-2.25505,5.19114l4.11044,12.48543l-6.22002,14.50629l-2.24728,12.99439l-4.38624,9.19614l-5.97333,11.70738l-2.31471,5.39352c-3.97804,-2.99106 -7.79917,-6.26059 -11.46339,-9.80857z" fill="#d0d0ce" stroke="none" stroke-width="1"/><path d="M441.18831,644.17105c1.21377,12.60838 0.65675,24.21517 -1.67106,34.82036c-2.53185,11.96433 -6.80255,23.25888 -12.81209,33.88363c-6.00955,10.62475 -13.48205,19.96712 -22.41749,28.02711c-8.93545,8.05999 -19.01801,14.63975 -30.24769,19.73929c-11.22968,5.09954 -23.31462,8.27216 -36.25479,9.51788c-15.92637,1.53318 -31.06187,-0.02364 -45.40649,-4.67046c-14.34462,-4.64683 -27.24585,-11.693 -38.70368,-21.13853c-7.62104,-6.28258 -14.32543,-13.4312 -20.11317,-21.44586l3.80812,-4.46611l9.17243,-9.41329l6.91285,-7.4847l5.99465,-11.746l10.23693,-12.01359l-0.22861,-13.14265l3.69121,-4.29048l22.71075,-2.18629c0.83047,8.62679 4.52736,15.72185 11.09067,21.2852c6.5633,5.56335 14.15835,7.92978 22.78513,7.09931c6.96779,-0.67077 12.90644,-3.33543 17.81597,-7.99398c4.90952,-4.65855 8.05624,-10.23575 9.44015,-16.73159c0.77181,-2.41842 0.98204,-5.45253 0.63068,-9.10232c-0.83047,-8.62679 -4.58326,-16.3025 -11.25836,-23.02714c-6.6751,-6.72464 -14.32604,-9.67173 -22.95283,-8.84125l-23.88956,2.29978l-6.89933,-71.66868l23.88956,-2.29978c8.62679,-0.83047 15.57502,-5.18298 20.8447,-13.05751c5.26968,-7.87453 7.48928,-16.12519 6.65881,-24.75197c-0.31941,-3.31799 -1.10458,-6.25628 -2.35551,-8.81485c-2.59768,-6.11254 -6.75055,-10.98703 -12.45861,-14.62346c-5.70806,-3.63643 -12.04598,-5.11926 -19.01377,-4.4485c-8.62679,0.83047 -15.6389,4.51938 -21.03635,11.06671c-0.63102,0.76546 -1.21948,1.54513 -1.76538,2.33901l-3.14205,-7.82685l-6.20376,-11.08074l-0.03703,-15.37041l-7.73524,-12.73047l-11.39723,-4.43211l-3.49268,-16.1502l-8.36159,-8.17994l-0.60485,-0.38967c3.82466,-2.74866 7.83976,-5.28601 12.04529,-7.61208c13.19473,-7.29795 27.75529,-11.71352 43.68166,-13.24671c12.94018,-1.24571 25.4084,-0.43674 37.40468,2.4269c11.99628,2.86365 23.14887,7.39917 33.4578,13.60655c10.30892,6.20739 19.4264,13.95269 27.35242,23.23591c7.92603,9.28322 14.27291,19.55564 19.04065,30.81726c4.30818,9.96637 7.05318,21.08784 8.23501,33.36442c1.30959,13.60378 0.29969,26.59366 -3.02972,38.96965c-3.3294,12.37599 -8.51255,23.75837 -15.54944,34.14714c8.88948,8.85559 16.14083,18.95722 21.75404,30.3049c5.61321,11.34767 9.07461,23.8234 10.3842,37.42717z" fill="#d0d0ce" stroke="none" stroke-width="1"/><path d="M466.76274,451.26476c7.10568,-13.01211 16.31628,-24.14786 27.63181,-33.40727c11.31553,-9.25941 24.50502,-16.16872 39.56849,-20.72793c15.06347,-4.55921 31.35186,-5.67752 48.86519,-3.35492c15.53069,2.05966 29.62591,6.70303 42.28566,13.93011c12.65975,7.22708 23.21724,16.36099 31.67246,27.40174c0.56649,0.73971 1.12225,1.48631 1.66729,2.23978l-8.42083,6.12796l-12.70107,6.7747l-5.02604,9.75871l-13.71741,3.4837l-9.01773,-4.84323l-15.06404,1.72863l-9.32582,7.87056l-15.25087,-2.83293l-8.27119,1.32928l-14.46664,-7.46664l-11.417,2.74977l-8.26,-7.00287l-9.93164,-1.17232l-8.28929,2.04821l-10.35065,-6.21661l-11.35422,2.78823l-9.53009,-4.98771l-9.84888,9.12366l-3.75815,-0.90488c0.73682,-1.48689 1.50704,-2.96612 2.31064,-4.43771z" fill="#d0d0ce" stroke="none" stroke-width="1"/><path d="M998.46569,540.5286c1.78716,12.9422 2.26056,25.35431 1.42021,37.23635l-39.09643,4.94958l1.74061,-14.35667l5.97556,-12.64194l9.05513,-12.2878l0.43316,-12.94213l8.79105,-12.38472l2.19907,-9.76092c4.80641,10.48981 7.96696,21.21922 9.48165,32.18824z" fill="#d0d0ce" stroke="none" stroke-width="1"/><path d="M969.40985,733.84108c-4.69305,1.21114 -10.4708,2.50128 -17.33325,3.87043l-0.70275,-0.75187l0.71323,-18.26509l5.51515,-16.38115l4.65646,-2.5631z" fill="#d0d0ce" stroke="none" stroke-width="1"/><path d="M836.97447,688.28351c13.99213,3.2657 26.34013,1.53991 37.04399,-5.17736c10.70387,-6.71727 19.45127,-15.43767 26.24222,-26.1612l37.81766,29.90423l-1.93527,4.95043l6.25355,16.11373l11.1482,14.48584l1.02123,0.12749c-1.68757,2.0915 -3.49056,4.2944 -5.40897,6.60869c-6.91368,8.34039 -16.02227,16.15857 -27.32575,23.45455c-11.30348,7.29598 -25.1233,12.92071 -41.45945,16.8742c-16.33615,3.95349 -35.69346,4.1287 -58.07193,0.52563l-0.49364,-0.07948c-25.01123,-4.02696 -45.3552,-11.35398 -61.03193,-21.98105c-15.67672,-10.62708 -27.78991,-23.46582 -36.33955,-38.51622c-8.54964,-15.0504 -13.8753,-31.7763 -15.97696,-50.17768c-2.10166,-18.40138 -2.10953,-37.22531 -0.02361,-56.47178l12.23983,-76.02096c3.24334,-18.04724 9.16198,-35.41053 17.75591,-52.08985c8.59393,-16.67933 19.6805,-31.01597 33.2597,-43.00994c13.5792,-11.99397 29.60085,-20.80927 48.06495,-26.4459c18.46409,-5.63664 39.04992,-6.62693 61.75748,-2.97087l0.49364,0.07948c20.0748,3.23216 36.90191,8.81125 50.48132,16.73727c13.57942,7.92601 24.83706,17.16634 33.77292,27.72097c1.36237,1.60917 2.67453,3.23772 3.93648,4.88565l0.0228,10.00554l-5.82218,14.02733l2.45089,12.71532l-6.10118,13.99146l-3.01984,13.65307l1.49011,14.38482l-40.99407,14.95479c-1.02082,-6.24163 -2.7556,-12.76702 -5.20436,-19.57619c-2.44876,-6.80916 -5.74395,-13.07935 -9.88559,-18.81057c-4.14163,-5.73122 -9.10041,-10.58113 -14.87634,-14.54972c-5.77593,-3.9686 -12.14589,-6.3447 -19.10987,-7.12832c-16.99579,-1.38592 -31.47939,3.11906 -43.45079,13.51495c-11.9714,10.39589 -19.41422,24.64395 -22.32847,42.74418l-11.52452,71.57818c-2.91425,18.10023 -0.26389,34.14216 7.95107,48.1258c8.21496,13.98364 20.60839,22.9848 37.1803,27.00348z" fill="#d0d0ce" stroke="none" stroke-width="1"/><path d="M1230.16724,733.31046c-3.6493,12.12959 -8.55848,22.66182 -14.72753,31.59667c-1.36747,2.0128 -2.78862,3.975 -4.26345,5.88659l-3.0784,-3.96732l2.272,-11.28919l-6.86266,-13.32909l-8.82774,-8.47154l2.11612,-9.2924l-7.0744,-6.37047l-4.60821,-10.52156l4.31468,-15.24176l-7.60555,-12.29065l-1.77016,-9.10108l-1.50442,-10.20791l3.86476,-11.27852l4.20662,-8.96796l-9.5583,-8.65214l0.66474,-8.25314l6.85258,-7.50019l-3.34446,-11.85887l1.10423,-11.39128l2.49886,-8.00534c2.27609,-3.01561 4.02734,-6.32542 5.25375,-9.92944l4.60104,-5.42112l3.41323,-15.13313l5.59881,-12.24793l8.80172,-5.69352l1.81489,-8.50014l4.09195,-7.31298l8.4532,-10.88812l12.65021,-10.05543l10.41974,-3.33973l2.65498,-1.21701c0.29279,0.38273 0.58331,0.76743 0.87156,1.1541c7.19206,9.64779 12.69918,20.26804 16.52135,31.86075c3.82217,11.59271 5.80826,23.50326 5.95826,35.73163c0.21494,10.85554 -1.45422,22.1885 -5.00749,33.9989c-3.9374,13.08719 -9.78932,24.72816 -17.55574,34.92289c-7.76643,10.19473 -16.87254,18.76809 -27.31832,25.72006c4.87581,11.56162 7.7637,23.65645 8.66369,36.28451c0.89999,12.62806 -0.61872,25.48568 -4.55612,38.57288z" fill="#d0d0ce" stroke="none" stroke-width="1"/><path d="M1163.14015,744.61837c-9.44709,7.72997 -19.79392,13.73507 -31.04048,18.0153c-11.24657,4.28022 -23.02685,6.76543 -35.34086,7.45562c-12.31401,0.69019 -24.728,-0.72544 -37.24197,-4.24687c-15.40181,-4.33408 -28.94815,-11.26254 -40.63902,-20.78539c-11.69087,-9.52285 -21.16791,-20.76011 -28.43111,-33.71179c-7.2632,-12.95168 -11.88648,-26.97845 -13.86984,-42.08031c-1.98336,-15.10186 -0.80801,-30.3537 3.52607,-45.75551l80.85951,22.7539c-2.34762,8.34265 -1.46881,16.29467 2.63644,23.85606c4.10525,7.56139 10.3292,12.5159 18.67185,14.86353c6.73829,1.89616 13.23874,1.56114 19.50134,-1.00506c6.2626,-2.5662 11.2143,-6.62669 14.8551,-12.18148c1.59467,-1.97522 2.88861,-4.72762 3.88184,-8.2572c2.34762,-8.34265 1.62682,-16.85619 -2.1624,-25.54063c-3.78923,-8.68444 -9.85517,-14.20048 -18.19781,-16.5481l-23.10272,-6.50111l19.50334,-69.30815l23.10272,6.50111c8.34265,2.34762 16.39504,0.80449 24.15717,-4.62939c3.92972,-2.751 7.16555,-5.87478 9.70749,-9.37132l-2.35486,8.04888l-0.89973,11.40926l3.55663,11.79698l-6.71695,7.6219l-0.5166,8.26373l9.71195,8.47931l-4.04509,9.04197l-3.66184,11.34603l1.68728,10.17928l1.93312,9.06787l7.82478,12.15226l-4.0406,15.3167l4.7962,10.43721l7.18753,6.24255l-1.9491,9.32886l8.97827,8.31184l7.10064,13.20385l-2.06914,11.32813l3.14907,3.91146c-5.79817,7.80063 -12.48091,14.79687 -20.04822,20.98874z" fill="#d0d0ce" stroke="none" stroke-width="1"/><path d="M1177.72925,572.775c1.10568,-3.14461 1.62909,-6.14062 1.57025,-8.98801c0.21402,-6.63817 -1.50362,-12.80718 -5.15291,-18.50703c-3.64929,-5.69985 -8.77577,-9.71073 -15.37946,-12.03265c-8.17599,-2.87476 -16.08925,-2.47709 -23.73977,1.193c-7.65052,3.67009 -12.91316,9.59313 -15.78792,17.76912l-79.24425,-27.86303c5.19668,-14.77968 12.94709,-27.7781 23.25123,-38.99526c10.30414,-11.21716 22.15042,-20.03706 35.53883,-26.45972c13.38841,-6.42265 27.6028,-10.16985 42.64316,-11.2416c15.04036,-1.07175 30.10761,1.046 45.20176,6.35324c12.26399,4.31214 23.23565,10.2899 32.91499,17.93331c9.2914,7.33706 17.22958,15.74484 23.81453,25.22333l-2.70798,1.094l-10.5619,2.8585l-13.09792,9.46488l-8.9435,10.48912l-4.42293,7.11768l-2.20269,8.408l-9.0535,5.284l-6.15445,11.97836l-4.10345,14.96073l-4.84475,5.20447c0.16106,-0.41055 0.31527,-0.82536 0.46262,-1.24444z" fill="#d0d0ce" stroke="none" stroke-width="1"/><path d="M1248.6962,702.35407l26.65589,-2.36937l3.81864,10.75116l1.41916,7.66579l1.51026,9.74074l0.4374,12.76618l7.95729,5.33349l8.54629,0.72625l-5.40949,4.71382l-8.94269,1.32878l-10.77529,4.3515l-9.18142,-1.19169l-11.28211,-0.3341z" fill="#d0d0ce" stroke="none" stroke-width="1"/><path d="M1319.09056,697.86696l3.69094,68.90121l-68.40193,3.6642l-0.81878,-15.28468l11.26341,0.73023l9.13389,1.51349l10.9215,-3.97029l8.98385,-1.01381l5.57175,-4.52087l-8.5155,-1.02603l-7.76502,-5.60973l0.01134,-12.77366l-1.16714,-9.78778l-1.14899,-7.71091l-3.4386,-10.87867z" fill="#d0d0ce" stroke="none" stroke-width="1"/><path d="M1271.00195,510.05728l31.67164,-8.76538l1.36097,6.67971l-4.18484,8.34925l4.91586,14.35884l6.80762,10.90943l-6.77153,13.3075l9.71778,8.29305l2.11722,10.74603l-3.13367,14.89799l6.85708,8.85482l-5.40272,14.31004l12.12954,11.15388l-4.64634,16.08185l6.53574,13.63287l1.74374,14.54271l-8.37395,12.18307l0.80984,9.37943l-1.74977,3.20855z" fill="#d0d0ce" stroke="none" stroke-width="1"/><path d="M1367.13559,388.95058l92.5423,360.30532l-81.35927,20.89665l-45.53234,-177.27619l1.80911,-3.17547l-0.63534,-9.39286l8.59897,-12.0253l-1.4731,-14.57261l-6.28118,-13.752l4.94449,-15.9927l-11.9201,-11.37743l5.6678,-14.20713l-6.69129,-8.98076l3.41007,-14.83717l-1.91709,-10.78353l-9.56194,-8.47226l7.01774,-13.17932l-6.60365,-11.0341l-4.64809,-14.44774l4.33933,-8.27002l-1.23657,-6.70385z" fill="#d0d0ce" stroke="none" stroke-width="1"/><path d="M1450.42006,714.05485l60.28526,-243.00069l3.37043,9.77459l3.51534,12.92123l0.88689,13.52887l2.91454,11.77103l4.57239,12.51573l1.77882,11.03733l0.16624,9.18445l7.18632,12.69455l-6.30254,15.62438l-2.10515,15.09035l-0.68601,12.02568l4.07248,9.58097l-1.43505,10.16967l-8.4438,11.77586l1.97945,15.33594l-5.39874,9.05057l-6.93064,5.82713l-1.62503,9.46547l-6.47292,8.02428l-8.81291,11.47448l-5.8429,9.8581l-6.251,7.24196l-16.90764,-1.03785l-10.51433,0.81004z" fill="#d0d0ce" stroke="none" stroke-width="1"/><path d="M1687.57113,569.79266l27.93362,-180.34956l87.95129,13.62242l-56.93866,367.61663l-83.99842,-13.01018l-70.81153,-196.14976l-28.01015,180.84367l-84.89728,-13.1494l10.39982,-1.7467l16.93273,-0.47773l5.5786,-7.77176l4.93826,-10.34095l7.75189,-12.21636l5.7297,-8.57078l0.77238,-9.57284l6.38199,-6.42335l4.56807,-9.49694l-3.34245,-15.09759l7.35731,-12.48353l0.52021,-10.25723l-4.91264,-9.17856l-0.39175,-12.03886l0.74776,-15.21812l4.8806,-16.12523l-8.29235,-12.00132l-0.9866,-9.13282l-2.75835,-10.83413l-5.6729,-12.05689l-3.95511,-11.46337l-2.09272,-13.39543l-4.65633,-12.55525l-4.23071,-9.43417l18.61726,-120.19975l84.49253,13.08671z" fill="#d0d0ce" stroke="none" stroke-width="1"/><path d="M2035.98908,576.33611l5.03823,83.84877l-47.84417,2.87482l-1.06494,-2.08942l-1.3067,-12.64906l2.82584,-13.625l-1.68034,-15.84904l7.44293,-8.19491l-1.10657,-8.65701l7.3693,-7.39011l-3.88219,-12.46198l3.92228,-3.98723z" fill="#d0d0ce" stroke="none" stroke-width="1"/><path d="M2063.06872,404.51612l-3.56067,83.9245l-143.87057,-6.104l-2.54333,59.94607l75.59104,3.2071l-4.30937,3.56533l2.58777,12.79358l-8.08623,6.59797l0.2157,8.72478l-8.24176,7.39102l0.05117,15.93778l-4.20402,13.2647l0.00664,12.71638l0.84574,2.18735l-58.01735,-2.4615l-6.104,143.87057l-83.9245,-3.56067l15.76867,-371.66564z" fill="#d0d0ce" stroke="none" stroke-width="1"/><path d="M2313.54134,663.52748c-5.24117,17.22005 -13.18598,33.87853 -23.83443,49.97545c-10.64844,16.09691 -24.3887,28.90088 -41.22076,38.4119c-17.34507,10.05174 -35.50464,16.19705 -54.4787,18.43593c-18.97407,2.23888 -37.86835,0.49509 -56.68285,-5.23138l-0.47833,-0.14559c-18.49561,-5.62941 -34.99809,-14.65914 -49.50746,-27.08919c-14.50936,-12.43005 -26.37397,-27.53944 -35.59381,-45.32817c-8.36023,-17.17866 -12.59913,-35.01931 -12.7167,-53.52194c-0.11757,-18.50263 2.57597,-37.36917 8.08061,-56.59961l25.33234,-83.23024c3.60571,-11.84669 9.06969,-23.28432 16.39192,-34.3129l3.94542,2.36925l11.72498,8.65997l11.88148,9.67847l15.92521,-2.46521l13.15167,7.58446l13.59653,-1.6824l9.1238,7.278l13.44052,-4.43305l11.42476,-0.11506l13.8889,0.77471l15.36854,-3.70189l13.71314,-5.55048l13.18612,-6.67936l5.40961,-11.84294l15.30251,-2.73733l8.58199,-2.95896l0.72207,-11.58567l6.81949,-6.19858l7.34205,-7.29339c0.80359,0.65756 1.60079,1.32508 2.3916,2.00256c14.50936,12.43005 26.21452,27.49091 35.11548,45.18258c7.7918,15.61193 12.2283,31.94478 13.30949,48.99855c1.0812,17.05377 -0.69376,33.76087 -5.32487,50.12131z" fill="#d0d0ce" stroke="none" stroke-width="1"/><path d="M2180.01414,493.52885l-7.87795,2.64198" fill="none" stroke="none" stroke-width="1"/><path d="" fill="none" stroke="#00bb31" stroke-width="6" opacity="0"/><path d="M2096.00086,456.71657c10.79368,-13.99491 23.59338,-25.3897 38.3991,-34.18437c17.51865,-9.72325 35.67946,-15.77546 54.48244,-18.15663c18.80298,-2.38117 37.62588,-0.75546 56.46869,4.87714l0.47905,0.1432c17.81582,5.32561 33.72228,13.65716 47.71939,24.99464l-7.3056,7.3299l-6.7885,6.2325l-0.66431,11.58913l-8.56713,3.00171l-15.28868,2.81358l-5.3505,11.86976l-13.15266,6.74501l-13.6853,5.61877l-15.3499,3.77845l-13.89259,-0.70546l-11.42405,0.17202l-2.06618,0.69292l-0.23758,-3.13064l1.55354,-4.9739l-3.34226,-10.20214l4.06584,-8.0195l-3.99023,-11.39522l0.85084,8.91646l-2.37383,3.04692l-0.93181,-12.28875l-1.90831,13.7568l0.39217,1.67401l-1.47187,1.88921l0.63734,9.4787l-0.31929,7.43274l-2.41729,5.2565l-0.71012,1.98048l-1.14922,0.38541l-9.15996,-7.23242l-13.58798,1.75016l-13.18931,-7.5188l-15.91273,2.54456l-11.92958,-9.61912l-11.76801,-8.60141l-3.95718,-2.34955c2.1225,-3.2317 4.40368,-6.4293 6.84355,-9.59279z" fill="#d0d0ce" stroke="none" stroke-width="1"/><path d="M2179.77655,490.39821l-9.96527,6.55231" fill="none" stroke="none" stroke-width="1"/><path d="" fill="none" stroke="#00bb31" stroke-width="6" opacity="0"/><path d="M569.10452,769.22535l-33.25379,-8.14835" fill="none" stroke="none" stroke-width="1"/><path d="" fill="none" stroke="#00bb31" stroke-width="6" opacity="0"/><path d="M696.10436,662.03676c-0.97115,15.9705 -4.28876,30.71298 -9.95282,44.22744c-5.66406,13.51446 -13.38964,25.23381 -23.17672,35.15807c-9.78708,9.92425 -21.68345,17.46608 -35.6891,22.6255c-14.00565,5.15941 -29.99188,7.19285 -47.95869,6.1003c-3.48233,-0.21176 -6.88983,-0.51933 -10.22251,-0.92271l-3.00494,-9.40292l-4.84502,-7.57606l-8.24263,-8.78282l-4.84502,-7.57606l-2.91277,-12.18761l3.63104,-14.8669l-5.58488,-14.60831l-11.40319,-13.14296l0.48484,-10.98084l-1.46178,-14.61549l-4.60798,-10.72944l-9.45657,-9.50831l-0.00361,-12.92028l1.94301,-9.28563l-4.37094,-13.88282l-7.03587,-12.18043l-11.86653,-11.51028l8.05938,10.28325l5.13229,11.56691l2.46736,13.2693l-3.84658,8.67212l-1.89996,12.30676l7.553,8.8948l2.7044,10.11592l-0.03208,1.0168l-3.52144,-6.50587l-11.16706,-9.34327l7.85623,11.58791l3.12847,9.96056l2.97117,8.68752l-2.0655,8.96565l9.49962,12.52945l3.6813,13.9948l-5.53461,14.25338l1.00919,11.57409l2.94145,6.96254l6.33905,8.1693l2.94145,6.96254l2.11193,11.68435c-1.50465,-0.59148 -2.98755,-1.21082 -4.44871,-1.858c-13.98319,-6.19349 -25.59407,-14.3299 -34.83266,-24.40924c-9.23858,-10.07934 -16.12509,-21.76888 -20.65953,-35.06863c-4.53444,-13.29975 -6.33632,-27.60215 -5.40563,-42.90722l9.28664,-152.7179c0.7716,-12.68889 3.62501,-25.05418 8.56022,-37.09585l3.81295,0.63556l9.1757,-9.80041l9.86041,4.29794l11.12741,-3.58796l10.76621,5.46543l8.1228,-2.63203l9.98983,0.46366l8.73671,6.39825l11.19275,-3.55406l14.96062,6.41984l8.15583,-1.91363l15.41362,1.74212l8.743,-8.51331l14.90313,-2.79464l9.33907,4.19023l13.4352,-4.44958l4.31993,-10.09117l12.18759,-7.66005l7.96412,-6.71081c8.31645,9.9268 14.65344,21.33208 19.01097,34.21585c4.67045,13.80894 6.5201,28.69866 5.54895,44.66916l-78.85434,-4.79506c0.52604,-8.65069 -2.01826,-16.23577 -7.6329,-22.75525c-5.61464,-6.51948 -12.7473,-10.04224 -21.39799,-10.56828c-8.65069,-0.52604 -16.15765,2.1065 -22.52088,7.89761c-6.36324,5.79112 -9.80787,13.01202 -10.33391,21.6627l-0.49908,-0.03035l-3.21694,52.90228c0.80706,-2.28857 2.70052,-4.59456 5.68037,-6.91797c2.97985,-2.32342 6.43349,-4.20058 10.36092,-5.63151c3.92743,-1.43092 7.83968,-2.61231 11.73676,-3.54415c3.89708,-0.93184 7.17649,-1.31684 9.83824,-1.15498c33.93731,2.0637 59.26217,13.9561 75.97458,35.67721c16.71241,21.72111 24.00642,50.0494 21.88202,84.98486z" fill="#d0d0ce" stroke="none" stroke-width="1"/><path d="M2188.4756,531.8259l28,-28h28" fill="none" stroke="#00bb31" stroke-width="6"/><path d="M2176.07516,494.84984l12.40044,36.97606v-18l28,-28h56l-28,46h-28" fill="none" stroke="#00bb31" stroke-width="6"/><path d="M2238.4756,503.8259c0,-3.31371 2.68629,-6 6,-6c3.31371,0 6,2.68629 6,6c0,3.31371 -2.68629,6 -6,6c-3.31371,0 -6,-2.68629 -6,-6z" fill="#00bb31" stroke="none" stroke-width="1"/><path d="M2210.4756,531.8259c0,-3.31371 2.68629,-6 6,-6c3.31371,0 6,2.68629 6,6c0,3.31371 -2.68629,6 -6,6c-3.31371,0 -6,-2.68629 -6,-6z" fill="#00bb31" stroke="none" stroke-width="1"/><path d="M2188.4756,531.8259l-8.46146,-38.29705l-0.47739,-6.29053l-2.20703,-10.71808l4.72396,-9.31757l-3.99023,-11.39522l0.85084,8.91646l-6.29365,8.07819l0.63734,9.4787l-0.53336,12.41629l-0.58842,1.47374" fill="#00bb31" stroke="none" stroke-width="1"/><path d="M2185.78181,510.38562l35,-35h35" fill="none" stroke="#00bb31" stroke-width="6"/><path d="M2174.79392,493.67437l10.9879,16.71126v-15l35,-35h70l-35,50h-35" fill="none" stroke="#00bb31" stroke-width="6"/><path d="M2249.78181,475.38562c0,-3.31371 2.68629,-6 6,-6c3.31371,0 6,2.68629 6,6c0,3.31371 -2.68629,6 -6,6c-3.31371,0 -6,-2.68629 -6,-6z" fill="#00bb31" stroke="none" stroke-width="1"/><path d="M2214.78181,510.38562c0,-3.31371 2.68629,-6 6,-6c3.31371,0 6,2.68629 6,6c0,3.31371 -2.68629,6 -6,6c-3.31371,0 -6,-2.68629 -6,-6z" fill="#00bb31" stroke="none" stroke-width="1"/><path d="M2185.78181,510.38562l-6.00526,-19.98741l1.55354,-4.9739l-4.49036,-13.70667l-1.23108,-16.23556l-1.90831,13.7568l2.92067,12.46729l-6.09961,13.26387l-0.71012,1.98048" fill="#00bb31" stroke="none" stroke-width="1"/><path d="M544.6238,797.20297l-32,-32h-28.5" fill="none" stroke="#00bb31" stroke-width="6"/><path d="M552.47762,765.15118l-7.85382,32.05179v-15l-32,-32h-57l28.5,47h28.5" fill="none" stroke="#00bb31" stroke-width="6"/><path d="M478.1238,765.20297c0,-3.31371 2.68629,-6 6,-6c3.31371,0 6,2.68629 6,6c0,3.31371 -2.68629,6 -6,6c-3.31371,0 -6,-2.68629 -6,-6z" fill="#00bb31" stroke="none" stroke-width="1"/><path d="M506.6238,797.20297c0,-3.31371 2.68629,-6 6,-6c3.31371,0 6,2.68629 6,6c0,3.31371 -2.68629,6 -6,6c-3.31371,0 -6,-2.68629 -6,-6z" fill="#00bb31" stroke="none" stroke-width="1"/><path d="M535.85073,761.077l-2.11193,-11.68435l-2.94145,-6.96254l-6.33905,-8.1693l-2.94145,-6.96254l-1.00919,-11.57409l5.53461,-14.25338l-3.6813,-13.9948l-9.49962,-12.52945l2.0655,-8.96565l-2.97117,-8.68752l-3.12847,-9.96056l-7.85623,-11.58791l11.16706,9.34327l3.52144,6.50587l0.03208,-1.0168l-2.7044,-10.11592l-7.553,-8.8948l1.89996,-12.30676l3.84658,-8.67212l-2.46736,-13.2693l-5.13229,-11.56691l-8.05938,-10.28325l11.86653,11.51028l7.03587,12.18043l4.37094,13.88282l-1.94301,9.28563l0.00361,12.92028l9.45657,9.50831l4.60798,10.72944l1.46178,14.61549l-0.48484,10.98084l11.40319,13.14296l5.58488,14.60831l-3.63104,14.8669l2.91277,12.18761l4.84502,7.57606l8.24263,8.78282l4.84502,7.57606l3.00494,9.40292l-24.48071,27.97762" fill="#00bb31" stroke="none" stroke-width="1"/></g></svg>